HIERARCHY
ROOT Hips
{
    OFFSET 0.000000 0.000000 0.000000
    CHANNELS 6 Xposition Yposition Zposition Zrotation Xrotation Yrotation
    JOINT Spine
    {
        OFFSET -0.000000 7.925200 0.000000
        CHANNELS 3 Zrotation Xrotation Yrotation
        JOINT Spine1
        {
            OFFSET -0.000000 23.364719 0.000000
            CHANNELS 3 Zrotation Xrotation Yrotation
            JOINT Neck
            {
                OFFSET -0.000000 23.268766 2.115342
                CHANNELS 3 Zrotation Xrotation Yrotation
                JOINT Head
                {
                    OFFSET -0.000000 13.530829 -1.932976
                    CHANNELS 3 Zrotation Xrotation Yrotation
                    End Site
                    {
                        OFFSET -0.000000 24.162195 0.000000
                    }
                }
            }
            JOINT LeftShoulder
            {
                OFFSET 3.858291 22.792089 -0.033814
                CHANNELS 3 Zrotation Xrotation Yrotation
                JOINT LeftArm
                {
                    OFFSET 7.057024 0.000000 0.000000
                    CHANNELS 3 Zrotation Xrotation Yrotation
                    JOINT LeftForeArm
                    {
                        OFFSET 34.734173 0.000000 0.000000
                        CHANNELS 3 Zrotation Xrotation Yrotation
                        JOINT LeftHand
                        {
                            OFFSET 23.943203 0.000000 0.000000
                            CHANNELS 3 Zrotation Xrotation Yrotation
                            End Site
                            {
                                OFFSET 14.497317 0.000000 0.000000
                            }
                        }
                    }
                }
            }
            JOINT RightShoulder
            {
                OFFSET -3.868823 22.792089 -0.033814
                CHANNELS 3 Zrotation Xrotation Yrotation
                JOINT RightArm
                {
                    OFFSET -7.057024 0.000000 0.000000
                    CHANNELS 3 Zrotation Xrotation Yrotation
                    JOINT RightForeArm
                    {
                        OFFSET -34.734173 0.000000 0.000000
                        CHANNELS 3 Zrotation Xrotation Yrotation
                        JOINT RightHand
                        {
                            OFFSET -23.943203 0.000000 0.000000
                            CHANNELS 3 Zrotation Xrotation Yrotation
                            End Site
                            {
                                OFFSET -14.497317 0.000000 0.000000
                            }
                        }
                    }
                }
            }
        }
    }
    JOINT LeftUpLeg
    {
        OFFSET 9.664878 0.000000 0.000000
        CHANNELS 3 Zrotation Xrotation Yrotation
        JOINT LeftLeg
        {
            OFFSET -0.000000 -38.728706 0.000000
            CHANNELS 3 Zrotation Xrotation Yrotation
            JOINT LeftFoot
            {
                OFFSET -0.000000 -40.242161 0.000000
                CHANNELS 3 Zrotation Xrotation Yrotation
                JOINT LeftToeBase
                {
                    OFFSET -0.000000 -6.282171 14.497317
                    CHANNELS 3 Zrotation Xrotation Yrotation
                    End Site
                    {
                        OFFSET -0.000000 0.000000 3.865951
                    }
                }
            }
        }
    }
    JOINT RightUpLeg
    {
        OFFSET -9.664878 0.000000 0.000000
        CHANNELS 3 Zrotation Xrotation Yrotation
        JOINT RightLeg
        {
            OFFSET -0.000000 -38.728706 0.000000
            CHANNELS 3 Zrotation Xrotation Yrotation
            JOINT RightFoot
            {
                OFFSET -0.000000 -40.242161 0.000000
                CHANNELS 3 Zrotation Xrotation Yrotation
                JOINT RightToeBase
                {
                    OFFSET -0.000000 -6.282171 14.497317
                    CHANNELS 3 Zrotation Xrotation Yrotation
                    End Site
                    {
                        OFFSET -0.000000 0.000000 3.865951
                    }
                }
            }
        }
    }
}
MOTION
Frames:    8
Frame Time:    0.008333
123.004303    88.861755    2.264775    -0.608673    -0.907497    88.738289    2.597293    -3.383578    -0.241542    -1.521752    1.746146    -0.295088    -1.116565    19.607668    4.188117    -3.273665    -1.838582    3.805045    15.473822    -1.002200    1.829803    -13.176491    2.791222    -9.560645    3.661961    -1.126814    -1.311577    -3.355574    -1.049108    -1.220694    -13.482631    0.245742    5.180336    11.524763    3.728485    7.995656    -2.621691    -1.260708    1.288691    2.189749    -1.188055    2.263901    2.789973    3.014053    0.176505    -2.215975    0.960058    -3.989686    -0.700502    -4.734871    10.817829    0.000000    0.000000    0.000000    1.958189    0.405449    2.079125    -1.394836    5.699846    0.625572    1.218304    -5.922750    -14.109526    0.000000    0.000000    0.000000    
123.007927    88.860954    2.263944    -0.609030    -0.903699    88.726257    2.631799    -3.408340    -0.243316    -1.590325    1.792171    -0.296779    -1.123036    19.592810    4.188364    -3.238021    -1.859615    3.810301    15.488789    -1.013193    1.860438    -13.154058    2.792917    -9.559357    3.686827    -1.160476    -1.323056    -3.654907    -1.070620    -1.483635    -13.471949    0.233758    5.182628    11.540606    3.733871    8.011950    -2.626397    -1.253237    1.285621    2.216178    -1.180006    2.264411    2.782663    3.019128    0.187955    -2.213379    0.959315    -3.975320    -0.572183    -4.674571    10.772421    0.000000    0.000000    0.000000    1.949722    0.413498    2.169909    -1.381374    5.691987    0.577826    1.230973    -5.937919    -14.140919    0.000000    0.000000    0.000000    
123.012993    88.862366    2.268500    -0.608351    -0.908010    88.727394    2.608686    -3.413476    -0.234783    -1.549280    1.805524    -0.288260    -1.096648    19.560112    4.167872    -3.283028    -1.822513    3.784050    15.492188    -1.023638    1.864242    -13.166843    2.790726    -9.582507    3.656165    -1.135356    -1.333568    -3.356691    -1.057525    -1.203599    -13.497787    0.224775    5.146295    11.545960    3.773654    8.009161    -2.624068    -1.269394    1.305315    2.199115    -1.196197    2.257173    2.789743    3.021468    0.187523    -2.214839    0.959849    -3.975251    -0.560694    -4.673253    10.774197    0.000000    0.000000    0.000000    1.962600    0.409361    2.089278    -1.398205    5.700744    0.628393    1.227504    -5.930883    -14.111510    0.000000    0.000000    0.000000    
123.016525    88.863129    2.271454    -0.609135    -0.911012    88.720818    2.631313    -3.392905    -0.241090    -1.589730    1.751948    -0.294787    -1.082837    19.620794    4.186861    -3.298565    -1.857542    3.800179    15.500716    -1.019379    1.869284    -13.166943    2.820052    -9.570601    3.676708    -1.145400    -1.330688    -3.372536    -1.067044    -1.211810    -13.465248    0.239353    5.199996    11.550371    3.750182    7.977290    -2.628119    -1.263984    1.305470    2.194196    -1.190878    2.256079    2.793121    3.028552    0.191906    -2.208829    0.949878    -3.961043    -0.566720    -4.668344    10.757123    0.000000    0.000000    0.000000    1.966039    0.412336    2.095069    -1.394670    5.702142    0.648243    1.217025    -5.939204    -14.136414    0.000000    0.000000    0.000000    
123.017906    88.864777    2.270642    -0.617663    -0.904896    88.717804    2.639294    -3.388292    -0.242942    -1.609390    1.721002    -0.296886    -1.111276    19.613808    4.185595    -3.259509    -1.815637    3.805400    15.481658    -1.009775    1.858463    -13.143412    2.816196    -9.553229    3.669390    -1.155870    -1.329571    -3.380844    -1.076843    -1.235049    -13.453040    0.263758    5.211723    11.548972    3.733907    7.981394    -2.627846    -1.281868    1.287282    2.189023    -1.209188    2.264026    2.786096    3.018978    0.182133    -2.213008    0.950725    -3.955304    -0.730882    -4.736732    10.814824    0.000000    0.000000    0.000000    1.959095    0.402138    2.087468    -1.397199    5.703644    0.632912    1.220554    -5.934394    -14.105778    0.000000    0.000000    0.000000    
123.022675    88.862671    2.272543    -0.610349    -0.913508    88.711395    2.654676    -3.390813    -0.246068    -1.619938    1.736693    -0.300051    -1.122450    19.591898    4.193342    -3.252996    -1.794629    3.814961    15.480525    -0.996140    1.883520    -13.133667    2.810005    -9.566698    3.662683    -1.159051    -1.332639    -3.375448    -1.080460    -1.222854    -13.461463    0.267923    5.206746    11.565140    3.707148    7.996059    -2.630414    -1.294189    1.284283    2.172954    -1.221931    2.259923    2.794601    3.026143    0.195565    -2.207731    0.967806    -3.987702    -0.571131    -4.692560    10.789371    0.000000    0.000000    0.000000    1.967631    0.409068    2.100286    -1.398874    5.710991    0.635848    1.221533    -5.942114    -14.106094    0.000000    0.000000    0.000000    
123.023880    88.863686    2.275281    -0.620102    -0.909471    88.713455    2.600227    -3.390223    -0.233362    -1.534790    1.706973    -0.287436    -1.164076    19.634048    4.159132    -3.221066    -1.814922    3.782025    15.441055    -0.988233    1.832801    -13.132343    2.801493    -9.561056    3.654134    -1.148877    -1.314980    -3.379423    -1.070990    -1.220298    -13.487219    0.282984    5.187674    11.563325    3.703833    7.977149    -2.632694    -1.294750    1.285538    2.148523    -1.223120    2.246003    2.792730    3.016915    0.198212    -2.208106    0.964002    -3.996776    -0.588629    -4.682993    10.799259    0.000000    0.000000    0.000000    1.963394    0.402486    2.093503    -1.394404    5.708495    0.652004    1.211838    -5.939539    -14.113443    0.000000    0.000000    0.000000    
123.026779    88.864182    2.276818    -0.619752    -0.906993    88.703545    2.607274    -3.400239    -0.229915    -1.565052    1.725846    -0.283872    -1.108640    19.646597    4.155395    -3.276408    -1.852368    3.769983    15.483058    -0.981836    1.838148    -13.153095    2.815987    -9.566048    3.665073    -1.146997    -1.301981    -3.406470    -1.069123    -1.221147    -13.463728    0.258921    5.178630    11.567204    3.701899    7.981921    -2.629667    -1.283138    1.280578    2.137811    -1.212199    2.230152    2.788273    3.019048    0.206437    -2.205447    0.969271    -3.968000    -0.587109    -4.682540    10.773309    0.000000    0.000000    0.000000    1.959271    0.402175    2.100215    -1.388551    5.708657    0.659319    1.217064    -5.935131    -14.126365    0.000000    0.000000    0.000000    
